<?xml version="1.0" encoding="UTF-8" standalone="no"?>
<!DOCTYPE svg PUBLIC "-//W3C//DTD SVG 1.1//EN"
 "http://www.w3.org/Graphics/SVG/1.1/DTD/svg11.dtd">
<!-- Generated by graphviz version 5.0.0 (20220707.1540)
 -->
<!-- Pages: 1 -->
<svg width="1857pt" height="478pt"
 viewBox="0.00 0.00 1857.00 478.00" xmlns="http://www.w3.org/2000/svg" xmlns:xlink="http://www.w3.org/1999/xlink">
<g id="graph0" class="graph" transform="scale(1 1) rotate(0) translate(4 474)">
<text text-anchor="middle" x="924.5" y="-12.6" font-family="sans-serif" font-size="28.00">First 100 nodes of T</text>
<!-- 3 -->
<g id="node1" class="node">
<title>3</title>
<ellipse fill="none" stroke="black" cx="758" cy="-294" rx="18" ry="18"/>
<text text-anchor="middle" x="758" y="-289.6" font-family="sans-serif" font-size="18.00">3</text>
</g>
<!-- 1 -->
<g id="node2" class="node">
<title>1</title>
<ellipse fill="none" stroke="black" cx="647" cy="-215" rx="18" ry="18"/>
<text text-anchor="middle" x="647" y="-210.6" font-family="sans-serif" font-size="18.00">1</text>
</g>
<!-- 3&#45;&#45;1 -->
<g id="edge1" class="edge">
<title>3&#45;&#45;1</title>
<path fill="none" stroke="black" d="M743.31,-283.52C725.5,-271.92 694.68,-251.55 669,-233 666.34,-231.08 663.54,-228.98 660.86,-226.93"/>
</g>
<!-- 2 -->
<g id="node3" class="node">
<title>2</title>
<ellipse fill="none" stroke="black" cx="684" cy="-215" rx="18" ry="18"/>
<text text-anchor="middle" x="684" y="-210.6" font-family="sans-serif" font-size="18.00">2</text>
</g>
<!-- 3&#45;&#45;2 -->
<g id="edge2" class="edge">
<title>3&#45;&#45;2</title>
<path fill="none" stroke="black" d="M745.78,-280.29C731.99,-265.93 709.69,-242.73 695.99,-228.48"/>
</g>
<!-- 6 -->
<g id="node4" class="node">
<title>6</title>
<ellipse fill="none" stroke="black" cx="721" cy="-215" rx="18" ry="18"/>
<text text-anchor="middle" x="721" y="-210.6" font-family="sans-serif" font-size="18.00">6</text>
</g>
<!-- 3&#45;&#45;6 -->
<g id="edge3" class="edge">
<title>3&#45;&#45;6</title>
<path fill="none" stroke="black" d="M750.51,-277.42C744.09,-264.06 734.89,-244.91 728.48,-231.56"/>
</g>
<!-- 10 -->
<g id="node5" class="node">
<title>10</title>
<ellipse fill="none" stroke="black" cx="758" cy="-215" rx="18" ry="18"/>
<text text-anchor="middle" x="758" y="-210.6" font-family="sans-serif" font-size="18.00">10</text>
</g>
<!-- 3&#45;&#45;10 -->
<g id="edge4" class="edge">
<title>3&#45;&#45;10</title>
<path fill="none" stroke="black" d="M758,-275.91C758,-263.15 758,-245.79 758,-233.04"/>
</g>
<!-- l11 -->
<g id="node16" class="node">
<title>l11</title>
</g>
<!-- 6&#45;&#45;l11 -->
<g id="edge15" class="edge">
<title>6&#45;&#45;l11</title>
</g>
<!-- 11 -->
<g id="node17" class="node">
<title>11</title>
<ellipse fill="none" stroke="black" cx="536" cy="-136" rx="18" ry="18"/>
<text text-anchor="middle" x="536" y="-131.6" font-family="sans-serif" font-size="18.00">11</text>
</g>
<!-- 6&#45;&#45;11 -->
<g id="edge16" class="edge">
<title>6&#45;&#45;11</title>
<path fill="none" stroke="black" d="M707.55,-202.4C704.84,-200.41 701.92,-198.51 699,-197 640.8,-166.92 616.2,-184.08 558,-154 555.08,-152.49 552.16,-150.59 549.45,-148.6"/>
</g>
<!-- 12 -->
<g id="node18" class="node">
<title>12</title>
<ellipse fill="none" stroke="black" cx="573" cy="-136" rx="18" ry="18"/>
<text text-anchor="middle" x="573" y="-131.6" font-family="sans-serif" font-size="18.00">12</text>
</g>
<!-- 6&#45;&#45;12 -->
<g id="edge17" class="edge">
<title>6&#45;&#45;12</title>
<path fill="none" stroke="black" d="M707.43,-202.62C704.72,-200.62 701.84,-198.65 699,-197 655.72,-171.93 638.28,-179.07 595,-154 592.16,-152.35 589.28,-150.38 586.57,-148.38"/>
</g>
<!-- 20 -->
<g id="node19" class="node">
<title>20</title>
<ellipse fill="none" stroke="black" cx="610" cy="-136" rx="18" ry="18"/>
<text text-anchor="middle" x="610" y="-131.6" font-family="sans-serif" font-size="18.00">20</text>
</g>
<!-- 6&#45;&#45;20 -->
<g id="edge18" class="edge">
<title>6&#45;&#45;20</title>
<path fill="none" stroke="black" d="M707.17,-203.02C704.49,-200.98 701.68,-198.89 699,-197 670.08,-176.61 660.92,-174.39 632,-154 629.32,-152.11 626.51,-150.02 623.83,-147.98"/>
</g>
<!-- 30 -->
<g id="node20" class="node">
<title>30</title>
<ellipse fill="none" stroke="black" cx="647" cy="-136" rx="18" ry="18"/>
<text text-anchor="middle" x="647" y="-131.6" font-family="sans-serif" font-size="18.00">30</text>
</g>
<!-- 6&#45;&#45;30 -->
<g id="edge19" class="edge">
<title>6&#45;&#45;30</title>
<path fill="none" stroke="black" d="M708.78,-201.29C694.99,-186.93 672.69,-163.73 658.99,-149.48"/>
</g>
<!-- 80 -->
<g id="node21" class="node">
<title>80</title>
<ellipse fill="none" stroke="black" cx="684" cy="-136" rx="18" ry="18"/>
<text text-anchor="middle" x="684" y="-131.6" font-family="sans-serif" font-size="18.00">80</text>
</g>
<!-- 6&#45;&#45;80 -->
<g id="edge20" class="edge">
<title>6&#45;&#45;80</title>
<path fill="none" stroke="black" d="M713.51,-198.42C707.09,-185.06 697.89,-165.91 691.48,-152.56"/>
</g>
<!-- 90 -->
<g id="node22" class="node">
<title>90</title>
<ellipse fill="none" stroke="black" cx="721" cy="-136" rx="18" ry="18"/>
<text text-anchor="middle" x="721" y="-131.6" font-family="sans-serif" font-size="18.00">90</text>
</g>
<!-- 6&#45;&#45;90 -->
<g id="edge21" class="edge">
<title>6&#45;&#45;90</title>
<path fill="none" stroke="black" d="M721,-196.91C721,-184.15 721,-166.79 721,-154.04"/>
</g>
<!-- 24 -->
<g id="node61" class="node">
<title>24</title>
<ellipse fill="none" stroke="black" cx="758" cy="-136" rx="18" ry="18"/>
<text text-anchor="middle" x="758" y="-131.6" font-family="sans-serif" font-size="18.00">24</text>
</g>
<!-- 10&#45;&#45;24 -->
<g id="edge60" class="edge">
<title>10&#45;&#45;24</title>
<path fill="none" stroke="black" d="M758,-196.91C758,-184.15 758,-166.79 758,-154.04"/>
</g>
<!-- 25 -->
<g id="node62" class="node">
<title>25</title>
<ellipse fill="none" stroke="black" cx="795" cy="-136" rx="18" ry="18"/>
<text text-anchor="middle" x="795" y="-131.6" font-family="sans-serif" font-size="18.00">25</text>
</g>
<!-- 10&#45;&#45;25 -->
<g id="edge61" class="edge">
<title>10&#45;&#45;25</title>
<path fill="none" stroke="black" d="M765.49,-198.42C771.91,-185.06 781.11,-165.91 787.52,-152.56"/>
</g>
<!-- 29 -->
<g id="node63" class="node">
<title>29</title>
<ellipse fill="none" stroke="black" cx="832" cy="-136" rx="18" ry="18"/>
<text text-anchor="middle" x="832" y="-131.6" font-family="sans-serif" font-size="18.00">29</text>
</g>
<!-- 10&#45;&#45;29 -->
<g id="edge62" class="edge">
<title>10&#45;&#45;29</title>
<path fill="none" stroke="black" d="M770.22,-201.29C784.01,-186.93 806.31,-163.73 820.01,-149.48"/>
</g>
<!-- 34 -->
<g id="node64" class="node">
<title>34</title>
<ellipse fill="none" stroke="black" cx="869" cy="-136" rx="18" ry="18"/>
<text text-anchor="middle" x="869" y="-131.6" font-family="sans-serif" font-size="18.00">34</text>
</g>
<!-- 10&#45;&#45;34 -->
<g id="edge63" class="edge">
<title>10&#45;&#45;34</title>
<path fill="none" stroke="black" d="M771.83,-203.02C774.51,-200.98 777.32,-198.89 780,-197 808.92,-176.61 818.08,-174.39 847,-154 849.68,-152.11 852.49,-150.02 855.17,-147.98"/>
</g>
<!-- 35 -->
<g id="node65" class="node">
<title>35</title>
<ellipse fill="none" stroke="black" cx="906" cy="-136" rx="18" ry="18"/>
<text text-anchor="middle" x="906" y="-131.6" font-family="sans-serif" font-size="18.00">35</text>
</g>
<!-- 10&#45;&#45;35 -->
<g id="edge64" class="edge">
<title>10&#45;&#45;35</title>
<path fill="none" stroke="black" d="M771.57,-202.62C774.28,-200.62 777.16,-198.65 780,-197 823.28,-171.93 840.72,-179.07 884,-154 886.84,-152.35 889.72,-150.38 892.43,-148.38"/>
</g>
<!-- 39 -->
<g id="node66" class="node">
<title>39</title>
<ellipse fill="none" stroke="black" cx="943" cy="-136" rx="18" ry="18"/>
<text text-anchor="middle" x="943" y="-131.6" font-family="sans-serif" font-size="18.00">39</text>
</g>
<!-- 10&#45;&#45;39 -->
<g id="edge65" class="edge">
<title>10&#45;&#45;39</title>
<path fill="none" stroke="black" d="M771.45,-202.4C774.16,-200.41 777.08,-198.51 780,-197 838.2,-166.92 862.8,-184.08 921,-154 923.92,-152.49 926.84,-150.59 929.55,-148.6"/>
</g>
<!-- 43 -->
<g id="node67" class="node">
<title>43</title>
<ellipse fill="none" stroke="black" cx="980" cy="-136" rx="18" ry="18"/>
<text text-anchor="middle" x="980" y="-131.6" font-family="sans-serif" font-size="18.00">43</text>
</g>
<!-- 10&#45;&#45;43 -->
<g id="edge66" class="edge">
<title>10&#45;&#45;43</title>
<path fill="none" stroke="black" d="M771.38,-202.26C774.1,-200.29 777.04,-198.42 780,-197 853.37,-161.79 884.63,-189.21 958,-154 960.96,-152.58 963.9,-150.71 966.62,-148.74"/>
</g>
<!-- 47 -->
<g id="node68" class="node">
<title>47</title>
<ellipse fill="none" stroke="black" cx="1017" cy="-136" rx="18" ry="18"/>
<text text-anchor="middle" x="1017" y="-131.6" font-family="sans-serif" font-size="18.00">47</text>
</g>
<!-- 10&#45;&#45;47 -->
<g id="edge67" class="edge">
<title>10&#45;&#45;47</title>
<path fill="none" stroke="black" d="M771.34,-202.16C774.06,-200.2 777.01,-198.36 780,-197 868.67,-156.59 906.33,-194.41 995,-154 997.99,-152.64 1000.94,-150.8 1003.66,-148.84"/>
</g>
<!-- 48 -->
<g id="node69" class="node">
<title>48</title>
<ellipse fill="none" stroke="black" cx="1054" cy="-136" rx="18" ry="18"/>
<text text-anchor="middle" x="1054" y="-131.6" font-family="sans-serif" font-size="18.00">48</text>
</g>
<!-- 10&#45;&#45;48 -->
<g id="edge68" class="edge">
<title>10&#45;&#45;48</title>
<path fill="none" stroke="black" d="M771.3,-202.09C774.03,-200.14 776.99,-198.32 780,-197 884.05,-151.35 927.95,-199.65 1032,-154 1035.01,-152.68 1037.97,-150.86 1040.7,-148.91"/>
</g>
<!-- 53 -->
<g id="node70" class="node">
<title>53</title>
<ellipse fill="none" stroke="black" cx="1091" cy="-136" rx="18" ry="18"/>
<text text-anchor="middle" x="1091" y="-131.6" font-family="sans-serif" font-size="18.00">53</text>
</g>
<!-- 10&#45;&#45;53 -->
<g id="edge69" class="edge">
<title>10&#45;&#45;53</title>
<path fill="none" stroke="black" d="M771.28,-202.04C774.01,-200.09 776.98,-198.29 780,-197 899.47,-146.1 949.53,-204.9 1069,-154 1072.02,-152.71 1074.99,-150.91 1077.72,-148.96"/>
</g>
<!-- 57 -->
<g id="node71" class="node">
<title>57</title>
<ellipse fill="none" stroke="black" cx="1128" cy="-136" rx="18" ry="18"/>
<text text-anchor="middle" x="1128" y="-131.6" font-family="sans-serif" font-size="18.00">57</text>
</g>
<!-- 10&#45;&#45;57 -->
<g id="edge70" class="edge">
<title>10&#45;&#45;57</title>
<path fill="none" stroke="black" d="M771.27,-202C774,-200.05 776.97,-198.26 780,-197 914.92,-140.83 971.08,-210.17 1106,-154 1109.03,-152.74 1112,-150.95 1114.73,-149"/>
</g>
<!-- 58 -->
<g id="node72" class="node">
<title>58</title>
<ellipse fill="none" stroke="black" cx="1165" cy="-136" rx="18" ry="18"/>
<text text-anchor="middle" x="1165" y="-131.6" font-family="sans-serif" font-size="18.00">58</text>
</g>
<!-- 10&#45;&#45;58 -->
<g id="edge71" class="edge">
<title>10&#45;&#45;58</title>
<path fill="none" stroke="black" d="M770.77,-202.32C773.64,-200.23 776.78,-198.31 780,-197 930.39,-135.55 992.61,-215.45 1143,-154 1146.22,-152.69 1149.36,-150.77 1152.23,-148.68"/>
</g>
<!-- 63 -->
<g id="node73" class="node">
<title>63</title>
<ellipse fill="none" stroke="black" cx="1202" cy="-136" rx="18" ry="18"/>
<text text-anchor="middle" x="1202" y="-131.6" font-family="sans-serif" font-size="18.00">63</text>
</g>
<!-- 10&#45;&#45;63 -->
<g id="edge72" class="edge">
<title>10&#45;&#45;63</title>
<path fill="none" stroke="black" d="M770.76,-202.29C773.62,-200.21 776.78,-198.3 780,-197 945.88,-130.27 1014.12,-220.73 1180,-154 1183.22,-152.7 1186.38,-150.79 1189.24,-148.71"/>
</g>
<!-- 67 -->
<g id="node74" class="node">
<title>67</title>
<ellipse fill="none" stroke="black" cx="1239" cy="-136" rx="18" ry="18"/>
<text text-anchor="middle" x="1239" y="-131.6" font-family="sans-serif" font-size="18.00">67</text>
</g>
<!-- 10&#45;&#45;67 -->
<g id="edge73" class="edge">
<title>10&#45;&#45;67</title>
<path fill="none" stroke="black" d="M770.75,-202.27C773.62,-200.19 776.77,-198.28 780,-197 961.38,-124.98 1035.62,-226.02 1217,-154 1220.23,-152.72 1223.38,-150.81 1226.25,-148.73"/>
</g>
<!-- 71 -->
<g id="node75" class="node">
<title>71</title>
<ellipse fill="none" stroke="black" cx="1276" cy="-136" rx="18" ry="18"/>
<text text-anchor="middle" x="1276" y="-131.6" font-family="sans-serif" font-size="18.00">71</text>
</g>
<!-- 10&#45;&#45;71 -->
<g id="edge75" class="edge">
<title>10&#45;&#45;71</title>
<path fill="none" stroke="black" d="M770.74,-202.25C773.61,-200.17 776.77,-198.27 780,-197 976.9,-119.68 1057.1,-231.32 1254,-154 1257.23,-152.73 1260.39,-150.83 1263.26,-148.75"/>
</g>
<!-- 72 -->
<g id="node76" class="node">
<title>72</title>
<ellipse fill="none" stroke="black" cx="1313" cy="-136" rx="18" ry="18"/>
<text text-anchor="middle" x="1313" y="-131.6" font-family="sans-serif" font-size="18.00">72</text>
</g>
<!-- 10&#45;&#45;72 -->
<g id="edge76" class="edge">
<title>10&#45;&#45;72</title>
<path fill="none" stroke="black" d="M770.74,-202.23C773.6,-200.16 776.76,-198.26 780,-197 992.41,-114.39 1078.59,-236.61 1291,-154 1294.24,-152.74 1297.4,-150.84 1300.26,-148.77"/>
</g>
<!-- 76 -->
<g id="node77" class="node">
<title>76</title>
<ellipse fill="none" stroke="black" cx="1350" cy="-136" rx="18" ry="18"/>
<text text-anchor="middle" x="1350" y="-131.6" font-family="sans-serif" font-size="18.00">76</text>
</g>
<!-- 10&#45;&#45;76 -->
<g id="edge77" class="edge">
<title>10&#45;&#45;76</title>
<path fill="none" stroke="black" d="M770.73,-202.22C773.6,-200.14 776.76,-198.25 780,-197 1007.94,-109.09 1100.06,-241.91 1328,-154 1331.24,-152.75 1334.4,-150.86 1337.27,-148.78"/>
</g>
<!-- 84 -->
<g id="node78" class="node">
<title>84</title>
<ellipse fill="none" stroke="black" cx="1387" cy="-136" rx="18" ry="18"/>
<text text-anchor="middle" x="1387" y="-131.6" font-family="sans-serif" font-size="18.00">84</text>
</g>
<!-- 10&#45;&#45;84 -->
<g id="edge78" class="edge">
<title>10&#45;&#45;84</title>
<path fill="none" stroke="black" d="M770.73,-202.2C773.59,-200.13 776.75,-198.24 780,-197 1023.47,-103.79 1121.53,-247.21 1365,-154 1368.25,-152.76 1371.41,-150.87 1374.27,-148.8"/>
</g>
<!-- 85 -->
<g id="node79" class="node">
<title>85</title>
<ellipse fill="none" stroke="black" cx="1424" cy="-136" rx="18" ry="18"/>
<text text-anchor="middle" x="1424" y="-131.6" font-family="sans-serif" font-size="18.00">85</text>
</g>
<!-- 10&#45;&#45;85 -->
<g id="edge79" class="edge">
<title>10&#45;&#45;85</title>
<path fill="none" stroke="black" d="M770.72,-202.19C773.59,-200.12 776.75,-198.24 780,-197 1039,-98.49 1143,-252.51 1402,-154 1405.25,-152.76 1408.41,-150.88 1411.28,-148.81"/>
</g>
<!-- 89 -->
<g id="node80" class="node">
<title>89</title>
<ellipse fill="none" stroke="black" cx="1461" cy="-136" rx="18" ry="18"/>
<text text-anchor="middle" x="1461" y="-131.6" font-family="sans-serif" font-size="18.00">89</text>
</g>
<!-- 10&#45;&#45;89 -->
<g id="edge80" class="edge">
<title>10&#45;&#45;89</title>
<path fill="none" stroke="black" d="M770.72,-202.18C773.59,-200.11 776.75,-198.23 780,-197 1054.54,-93.19 1164.46,-257.81 1439,-154 1442.25,-152.77 1445.41,-150.89 1448.28,-148.82"/>
</g>
<!-- 94 -->
<g id="node81" class="node">
<title>94</title>
<ellipse fill="none" stroke="black" cx="1498" cy="-136" rx="18" ry="18"/>
<text text-anchor="middle" x="1498" y="-131.6" font-family="sans-serif" font-size="18.00">94</text>
</g>
<!-- 10&#45;&#45;94 -->
<g id="edge81" class="edge">
<title>10&#45;&#45;94</title>
<path fill="none" stroke="black" d="M770.72,-202.17C773.58,-200.1 776.75,-198.22 780,-197 1070.08,-87.88 1185.92,-263.12 1476,-154 1479.25,-152.78 1482.42,-150.9 1485.28,-148.83"/>
</g>
<!-- 95 -->
<g id="node82" class="node">
<title>95</title>
<ellipse fill="none" stroke="black" cx="1535" cy="-136" rx="18" ry="18"/>
<text text-anchor="middle" x="1535" y="-131.6" font-family="sans-serif" font-size="18.00">95</text>
</g>
<!-- 10&#45;&#45;95 -->
<g id="edge82" class="edge">
<title>10&#45;&#45;95</title>
<path fill="none" stroke="black" d="M770.71,-202.17C773.58,-200.1 776.75,-198.22 780,-197 1085.62,-82.58 1207.38,-268.42 1513,-154 1516.25,-152.78 1519.42,-150.9 1522.29,-148.83"/>
</g>
<!-- 99 -->
<g id="node83" class="node">
<title>99</title>
<ellipse fill="none" stroke="black" cx="1572" cy="-136" rx="18" ry="18"/>
<text text-anchor="middle" x="1572" y="-131.6" font-family="sans-serif" font-size="18.00">99</text>
</g>
<!-- 10&#45;&#45;99 -->
<g id="edge83" class="edge">
<title>10&#45;&#45;99</title>
<path fill="none" stroke="black" d="M770.71,-202.16C773.58,-200.09 776.74,-198.21 780,-197 1101.16,-77.27 1228.84,-273.73 1550,-154 1553.26,-152.79 1556.42,-150.91 1559.29,-148.84"/>
</g>
<!-- 4 -->
<g id="node6" class="node">
<title>4</title>
<ellipse fill="none" stroke="black" cx="832" cy="-452" rx="18" ry="18"/>
<text text-anchor="middle" x="832" y="-447.6" font-family="sans-serif" font-size="18.00">4</text>
</g>
<!-- 0 -->
<g id="node7" class="node">
<title>0</title>
<ellipse fill="none" stroke="black" cx="795" cy="-373" rx="18" ry="18"/>
<text text-anchor="middle" x="795" y="-368.6" font-family="sans-serif" font-size="18.00">0</text>
</g>
<!-- 4&#45;&#45;0 -->
<g id="edge5" class="edge">
<title>4&#45;&#45;0</title>
<path fill="none" stroke="black" d="M824.51,-435.42C818.09,-422.06 808.89,-402.91 802.48,-389.56"/>
</g>
<!-- 5 -->
<g id="node8" class="node">
<title>5</title>
<ellipse fill="none" stroke="black" cx="832" cy="-373" rx="18" ry="18"/>
<text text-anchor="middle" x="832" y="-368.6" font-family="sans-serif" font-size="18.00">5</text>
</g>
<!-- 4&#45;&#45;5 -->
<g id="edge6" class="edge">
<title>4&#45;&#45;5</title>
<path fill="none" stroke="black" d="M832,-433.91C832,-421.15 832,-403.79 832,-391.04"/>
</g>
<!-- 9 -->
<g id="node9" class="node">
<title>9</title>
<ellipse fill="none" stroke="black" cx="1054" cy="-373" rx="18" ry="18"/>
<text text-anchor="middle" x="1054" y="-368.6" font-family="sans-serif" font-size="18.00">9</text>
</g>
<!-- 4&#45;&#45;9 -->
<g id="edge7" class="edge">
<title>4&#45;&#45;9</title>
<path fill="none" stroke="black" d="M848.69,-445.21C889.83,-430.94 995.78,-394.19 1037.12,-379.85"/>
</g>
<!-- r9 -->
<g id="node10" class="node">
<title>r9</title>
</g>
<!-- 4&#45;&#45;r9 -->
<g id="edge8" class="edge">
<title>4&#45;&#45;r9</title>
</g>
<!-- 5&#45;&#45;3 -->
<g id="edge9" class="edge">
<title>5&#45;&#45;3</title>
<path fill="none" stroke="black" d="M819.78,-359.29C805.99,-344.93 783.69,-321.73 769.99,-307.48"/>
</g>
<!-- 7 -->
<g id="node11" class="node">
<title>7</title>
<ellipse fill="none" stroke="black" cx="832" cy="-294" rx="18" ry="18"/>
<text text-anchor="middle" x="832" y="-289.6" font-family="sans-serif" font-size="18.00">7</text>
</g>
<!-- 5&#45;&#45;7 -->
<g id="edge10" class="edge">
<title>5&#45;&#45;7</title>
<path fill="none" stroke="black" d="M832,-354.91C832,-342.15 832,-324.79 832,-312.04"/>
</g>
<!-- 8 -->
<g id="node12" class="node">
<title>8</title>
<ellipse fill="none" stroke="black" cx="906" cy="-294" rx="18" ry="18"/>
<text text-anchor="middle" x="906" y="-289.6" font-family="sans-serif" font-size="18.00">8</text>
</g>
<!-- 5&#45;&#45;8 -->
<g id="edge11" class="edge">
<title>5&#45;&#45;8</title>
<path fill="none" stroke="black" d="M844.22,-359.29C858.01,-344.93 880.31,-321.73 894.01,-307.48"/>
</g>
<!-- 40 -->
<g id="node13" class="node">
<title>40</title>
<ellipse fill="none" stroke="black" cx="943" cy="-294" rx="18" ry="18"/>
<text text-anchor="middle" x="943" y="-289.6" font-family="sans-serif" font-size="18.00">40</text>
</g>
<!-- 5&#45;&#45;40 -->
<g id="edge12" class="edge">
<title>5&#45;&#45;40</title>
<path fill="none" stroke="black" d="M846.69,-362.52C864.5,-350.92 895.32,-330.55 921,-312 923.66,-310.08 926.46,-307.98 929.14,-305.93"/>
</g>
<!-- 50 -->
<g id="node14" class="node">
<title>50</title>
<ellipse fill="none" stroke="black" cx="980" cy="-294" rx="18" ry="18"/>
<text text-anchor="middle" x="980" y="-289.6" font-family="sans-serif" font-size="18.00">50</text>
</g>
<!-- 5&#45;&#45;50 -->
<g id="edge13" class="edge">
<title>5&#45;&#45;50</title>
<path fill="none" stroke="black" d="M848.49,-365.48C873.12,-355.45 920.64,-334.96 958,-312 960.8,-310.28 963.66,-308.28 966.36,-306.26"/>
</g>
<!-- 60 -->
<g id="node15" class="node">
<title>60</title>
<ellipse fill="none" stroke="black" cx="1017" cy="-294" rx="18" ry="18"/>
<text text-anchor="middle" x="1017" y="-289.6" font-family="sans-serif" font-size="18.00">60</text>
</g>
<!-- 5&#45;&#45;60 -->
<g id="edge14" class="edge">
<title>5&#45;&#45;60</title>
<path fill="none" stroke="black" d="M849.4,-367.49C880.05,-359.14 945.13,-339.59 995,-312 997.87,-310.41 1000.77,-308.47 1003.48,-306.47"/>
</g>
<!-- 17 -->
<g id="node39" class="node">
<title>17</title>
<ellipse fill="none" stroke="black" cx="1054" cy="-294" rx="18" ry="18"/>
<text text-anchor="middle" x="1054" y="-289.6" font-family="sans-serif" font-size="18.00">17</text>
</g>
<!-- 9&#45;&#45;17 -->
<g id="edge38" class="edge">
<title>9&#45;&#45;17</title>
<path fill="none" stroke="black" d="M1054,-354.91C1054,-342.15 1054,-324.79 1054,-312.04"/>
</g>
<!-- 21 -->
<g id="node40" class="node">
<title>21</title>
<ellipse fill="none" stroke="black" cx="1091" cy="-294" rx="18" ry="18"/>
<text text-anchor="middle" x="1091" y="-289.6" font-family="sans-serif" font-size="18.00">21</text>
</g>
<!-- 9&#45;&#45;21 -->
<g id="edge39" class="edge">
<title>9&#45;&#45;21</title>
<path fill="none" stroke="black" d="M1061.49,-356.42C1067.91,-343.06 1077.11,-323.91 1083.52,-310.56"/>
</g>
<!-- 22 -->
<g id="node41" class="node">
<title>22</title>
<ellipse fill="none" stroke="black" cx="1128" cy="-294" rx="18" ry="18"/>
<text text-anchor="middle" x="1128" y="-289.6" font-family="sans-serif" font-size="18.00">22</text>
</g>
<!-- 9&#45;&#45;22 -->
<g id="edge40" class="edge">
<title>9&#45;&#45;22</title>
<path fill="none" stroke="black" d="M1066.22,-359.29C1080.01,-344.93 1102.31,-321.73 1116.01,-307.48"/>
</g>
<!-- 26 -->
<g id="node42" class="node">
<title>26</title>
<ellipse fill="none" stroke="black" cx="1165" cy="-294" rx="18" ry="18"/>
<text text-anchor="middle" x="1165" y="-289.6" font-family="sans-serif" font-size="18.00">26</text>
</g>
<!-- 9&#45;&#45;26 -->
<g id="edge41" class="edge">
<title>9&#45;&#45;26</title>
<path fill="none" stroke="black" d="M1067.83,-361.02C1070.51,-358.98 1073.32,-356.89 1076,-355 1104.92,-334.61 1114.08,-332.39 1143,-312 1145.68,-310.11 1148.49,-308.02 1151.17,-305.98"/>
</g>
<!-- 31 -->
<g id="node43" class="node">
<title>31</title>
<ellipse fill="none" stroke="black" cx="1202" cy="-294" rx="18" ry="18"/>
<text text-anchor="middle" x="1202" y="-289.6" font-family="sans-serif" font-size="18.00">31</text>
</g>
<!-- 9&#45;&#45;31 -->
<g id="edge42" class="edge">
<title>9&#45;&#45;31</title>
<path fill="none" stroke="black" d="M1067.57,-360.62C1070.28,-358.62 1073.16,-356.65 1076,-355 1119.28,-329.93 1136.72,-337.07 1180,-312 1182.84,-310.35 1185.72,-308.38 1188.43,-306.38"/>
</g>
<!-- 32 -->
<g id="node44" class="node">
<title>32</title>
<ellipse fill="none" stroke="black" cx="1239" cy="-294" rx="18" ry="18"/>
<text text-anchor="middle" x="1239" y="-289.6" font-family="sans-serif" font-size="18.00">32</text>
</g>
<!-- 9&#45;&#45;32 -->
<g id="edge43" class="edge">
<title>9&#45;&#45;32</title>
<path fill="none" stroke="black" d="M1067.45,-360.4C1070.16,-358.41 1073.08,-356.51 1076,-355 1134.2,-324.92 1158.8,-342.08 1217,-312 1219.92,-310.49 1222.84,-308.59 1225.55,-306.6"/>
</g>
<!-- 36 -->
<g id="node45" class="node">
<title>36</title>
<ellipse fill="none" stroke="black" cx="1276" cy="-294" rx="18" ry="18"/>
<text text-anchor="middle" x="1276" y="-289.6" font-family="sans-serif" font-size="18.00">36</text>
</g>
<!-- 9&#45;&#45;36 -->
<g id="edge44" class="edge">
<title>9&#45;&#45;36</title>
<path fill="none" stroke="black" d="M1067.38,-360.26C1070.1,-358.29 1073.04,-356.42 1076,-355 1149.37,-319.79 1180.63,-347.21 1254,-312 1256.96,-310.58 1259.9,-308.71 1262.62,-306.74"/>
</g>
<!-- 44 -->
<g id="node46" class="node">
<title>44</title>
<ellipse fill="none" stroke="black" cx="1313" cy="-294" rx="18" ry="18"/>
<text text-anchor="middle" x="1313" y="-289.6" font-family="sans-serif" font-size="18.00">44</text>
</g>
<!-- 9&#45;&#45;44 -->
<g id="edge45" class="edge">
<title>9&#45;&#45;44</title>
<path fill="none" stroke="black" d="M1067.34,-360.16C1070.06,-358.2 1073.01,-356.36 1076,-355 1164.67,-314.59 1202.33,-352.41 1291,-312 1293.99,-310.64 1296.94,-308.8 1299.66,-306.84"/>
</g>
<!-- 45 -->
<g id="node47" class="node">
<title>45</title>
<ellipse fill="none" stroke="black" cx="1350" cy="-294" rx="18" ry="18"/>
<text text-anchor="middle" x="1350" y="-289.6" font-family="sans-serif" font-size="18.00">45</text>
</g>
<!-- 9&#45;&#45;45 -->
<g id="edge46" class="edge">
<title>9&#45;&#45;45</title>
<path fill="none" stroke="black" d="M1067.3,-360.09C1070.03,-358.14 1072.99,-356.32 1076,-355 1180.05,-309.35 1223.95,-357.65 1328,-312 1331.01,-310.68 1333.97,-308.86 1336.7,-306.91"/>
</g>
<!-- 49 -->
<g id="node48" class="node">
<title>49</title>
<ellipse fill="none" stroke="black" cx="1387" cy="-294" rx="18" ry="18"/>
<text text-anchor="middle" x="1387" y="-289.6" font-family="sans-serif" font-size="18.00">49</text>
</g>
<!-- 9&#45;&#45;49 -->
<g id="edge47" class="edge">
<title>9&#45;&#45;49</title>
<path fill="none" stroke="black" d="M1067.28,-360.04C1070.01,-358.09 1072.98,-356.29 1076,-355 1195.47,-304.1 1245.53,-362.9 1365,-312 1368.02,-310.71 1370.99,-308.91 1373.72,-306.96"/>
</g>
<!-- 54 -->
<g id="node49" class="node">
<title>54</title>
<ellipse fill="none" stroke="black" cx="1424" cy="-294" rx="18" ry="18"/>
<text text-anchor="middle" x="1424" y="-289.6" font-family="sans-serif" font-size="18.00">54</text>
</g>
<!-- 9&#45;&#45;54 -->
<g id="edge48" class="edge">
<title>9&#45;&#45;54</title>
<path fill="none" stroke="black" d="M1067.27,-360C1070,-358.05 1072.97,-356.26 1076,-355 1210.92,-298.83 1267.08,-368.17 1402,-312 1405.03,-310.74 1408,-308.95 1410.73,-307"/>
</g>
<!-- 55 -->
<g id="node50" class="node">
<title>55</title>
<ellipse fill="none" stroke="black" cx="1461" cy="-294" rx="18" ry="18"/>
<text text-anchor="middle" x="1461" y="-289.6" font-family="sans-serif" font-size="18.00">55</text>
</g>
<!-- 9&#45;&#45;55 -->
<g id="edge49" class="edge">
<title>9&#45;&#45;55</title>
<path fill="none" stroke="black" d="M1066.77,-360.32C1069.64,-358.23 1072.78,-356.31 1076,-355 1226.39,-293.55 1288.61,-373.45 1439,-312 1442.22,-310.69 1445.36,-308.77 1448.23,-306.68"/>
</g>
<!-- 59 -->
<g id="node51" class="node">
<title>59</title>
<ellipse fill="none" stroke="black" cx="1498" cy="-294" rx="18" ry="18"/>
<text text-anchor="middle" x="1498" y="-289.6" font-family="sans-serif" font-size="18.00">59</text>
</g>
<!-- 9&#45;&#45;59 -->
<g id="edge50" class="edge">
<title>9&#45;&#45;59</title>
<path fill="none" stroke="black" d="M1066.76,-360.29C1069.62,-358.21 1072.78,-356.3 1076,-355 1241.88,-288.27 1310.12,-378.73 1476,-312 1479.22,-310.7 1482.38,-308.79 1485.24,-306.71"/>
</g>
<!-- 64 -->
<g id="node52" class="node">
<title>64</title>
<ellipse fill="none" stroke="black" cx="1535" cy="-294" rx="18" ry="18"/>
<text text-anchor="middle" x="1535" y="-289.6" font-family="sans-serif" font-size="18.00">64</text>
</g>
<!-- 9&#45;&#45;64 -->
<g id="edge51" class="edge">
<title>9&#45;&#45;64</title>
<path fill="none" stroke="black" d="M1066.75,-360.27C1069.62,-358.19 1072.77,-356.28 1076,-355 1257.38,-282.98 1331.62,-384.02 1513,-312 1516.23,-310.72 1519.38,-308.81 1522.25,-306.73"/>
</g>
<!-- 65 -->
<g id="node53" class="node">
<title>65</title>
<ellipse fill="none" stroke="black" cx="1572" cy="-294" rx="18" ry="18"/>
<text text-anchor="middle" x="1572" y="-289.6" font-family="sans-serif" font-size="18.00">65</text>
</g>
<!-- 9&#45;&#45;65 -->
<g id="edge52" class="edge">
<title>9&#45;&#45;65</title>
<path fill="none" stroke="black" d="M1066.74,-360.25C1069.61,-358.17 1072.77,-356.27 1076,-355 1272.9,-277.68 1353.1,-389.32 1550,-312 1553.23,-310.73 1556.39,-308.83 1559.26,-306.75"/>
</g>
<!-- 69 -->
<g id="node54" class="node">
<title>69</title>
<ellipse fill="none" stroke="black" cx="1609" cy="-294" rx="18" ry="18"/>
<text text-anchor="middle" x="1609" y="-289.6" font-family="sans-serif" font-size="18.00">69</text>
</g>
<!-- 9&#45;&#45;69 -->
<g id="edge53" class="edge">
<title>9&#45;&#45;69</title>
<path fill="none" stroke="black" d="M1066.74,-360.23C1069.6,-358.16 1072.76,-356.26 1076,-355 1288.41,-272.39 1374.59,-394.61 1587,-312 1590.24,-310.74 1593.4,-308.84 1596.26,-306.77"/>
</g>
<!-- 81 -->
<g id="node55" class="node">
<title>81</title>
<ellipse fill="none" stroke="black" cx="1646" cy="-294" rx="18" ry="18"/>
<text text-anchor="middle" x="1646" y="-289.6" font-family="sans-serif" font-size="18.00">81</text>
</g>
<!-- 9&#45;&#45;81 -->
<g id="edge54" class="edge">
<title>9&#45;&#45;81</title>
<path fill="none" stroke="black" d="M1066.73,-360.22C1069.6,-358.14 1072.76,-356.25 1076,-355 1303.94,-267.09 1396.06,-399.91 1624,-312 1627.24,-310.75 1630.4,-308.86 1633.27,-306.78"/>
</g>
<!-- 82 -->
<g id="node56" class="node">
<title>82</title>
<ellipse fill="none" stroke="black" cx="1683" cy="-294" rx="18" ry="18"/>
<text text-anchor="middle" x="1683" y="-289.6" font-family="sans-serif" font-size="18.00">82</text>
</g>
<!-- 9&#45;&#45;82 -->
<g id="edge55" class="edge">
<title>9&#45;&#45;82</title>
<path fill="none" stroke="black" d="M1066.73,-360.2C1069.59,-358.13 1072.75,-356.24 1076,-355 1319.47,-261.79 1417.53,-405.21 1661,-312 1664.25,-310.76 1667.41,-308.87 1670.27,-306.8"/>
</g>
<!-- 86 -->
<g id="node57" class="node">
<title>86</title>
<ellipse fill="none" stroke="black" cx="1720" cy="-294" rx="18" ry="18"/>
<text text-anchor="middle" x="1720" y="-289.6" font-family="sans-serif" font-size="18.00">86</text>
</g>
<!-- 9&#45;&#45;86 -->
<g id="edge56" class="edge">
<title>9&#45;&#45;86</title>
<path fill="none" stroke="black" d="M1066.72,-360.19C1069.59,-358.12 1072.75,-356.24 1076,-355 1335,-256.49 1439,-410.51 1698,-312 1701.25,-310.76 1704.41,-308.88 1707.28,-306.81"/>
</g>
<!-- 91 -->
<g id="node58" class="node">
<title>91</title>
<ellipse fill="none" stroke="black" cx="1757" cy="-294" rx="18" ry="18"/>
<text text-anchor="middle" x="1757" y="-289.6" font-family="sans-serif" font-size="18.00">91</text>
</g>
<!-- 9&#45;&#45;91 -->
<g id="edge57" class="edge">
<title>9&#45;&#45;91</title>
<path fill="none" stroke="black" d="M1066.72,-360.18C1069.59,-358.11 1072.75,-356.23 1076,-355 1350.54,-251.19 1460.46,-415.81 1735,-312 1738.25,-310.77 1741.41,-308.89 1744.28,-306.82"/>
</g>
<!-- 92 -->
<g id="node59" class="node">
<title>92</title>
<ellipse fill="none" stroke="black" cx="1794" cy="-294" rx="18" ry="18"/>
<text text-anchor="middle" x="1794" y="-289.6" font-family="sans-serif" font-size="18.00">92</text>
</g>
<!-- 9&#45;&#45;92 -->
<g id="edge58" class="edge">
<title>9&#45;&#45;92</title>
<path fill="none" stroke="black" d="M1066.72,-360.17C1069.58,-358.1 1072.75,-356.22 1076,-355 1366.08,-245.88 1481.92,-421.12 1772,-312 1775.25,-310.78 1778.42,-308.9 1781.28,-306.83"/>
</g>
<!-- 96 -->
<g id="node60" class="node">
<title>96</title>
<ellipse fill="none" stroke="black" cx="1831" cy="-294" rx="18" ry="18"/>
<text text-anchor="middle" x="1831" y="-289.6" font-family="sans-serif" font-size="18.00">96</text>
</g>
<!-- 9&#45;&#45;96 -->
<g id="edge59" class="edge">
<title>9&#45;&#45;96</title>
<path fill="none" stroke="black" d="M1066.71,-360.17C1069.58,-358.1 1072.75,-356.22 1076,-355 1381.62,-240.58 1503.38,-426.42 1809,-312 1812.25,-310.78 1815.42,-308.9 1818.29,-306.83"/>
</g>
<!-- 15 -->
<g id="node23" class="node">
<title>15</title>
<ellipse fill="none" stroke="black" cx="795" cy="-215" rx="18" ry="18"/>
<text text-anchor="middle" x="795" y="-210.6" font-family="sans-serif" font-size="18.00">15</text>
</g>
<!-- 7&#45;&#45;15 -->
<g id="edge22" class="edge">
<title>7&#45;&#45;15</title>
<path fill="none" stroke="black" d="M824.51,-277.42C818.09,-264.06 808.89,-244.91 802.48,-231.56"/>
</g>
<!-- 16 -->
<g id="node24" class="node">
<title>16</title>
<ellipse fill="none" stroke="black" cx="832" cy="-215" rx="18" ry="18"/>
<text text-anchor="middle" x="832" y="-210.6" font-family="sans-serif" font-size="18.00">16</text>
</g>
<!-- 7&#45;&#45;16 -->
<g id="edge23" class="edge">
<title>7&#45;&#45;16</title>
<path fill="none" stroke="black" d="M832,-275.91C832,-263.15 832,-245.79 832,-233.04"/>
</g>
<!-- 70 -->
<g id="node25" class="node">
<title>70</title>
<ellipse fill="none" stroke="black" cx="869" cy="-215" rx="18" ry="18"/>
<text text-anchor="middle" x="869" y="-210.6" font-family="sans-serif" font-size="18.00">70</text>
</g>
<!-- 7&#45;&#45;70 -->
<g id="edge24" class="edge">
<title>7&#45;&#45;70</title>
<path fill="none" stroke="black" d="M839.49,-277.42C845.91,-264.06 855.11,-244.91 861.52,-231.56"/>
</g>
<!-- 13 -->
<g id="node26" class="node">
<title>13</title>
<ellipse fill="none" stroke="black" cx="906" cy="-215" rx="18" ry="18"/>
<text text-anchor="middle" x="906" y="-210.6" font-family="sans-serif" font-size="18.00">13</text>
</g>
<!-- 8&#45;&#45;13 -->
<g id="edge25" class="edge">
<title>8&#45;&#45;13</title>
<path fill="none" stroke="black" d="M906,-275.91C906,-263.15 906,-245.79 906,-233.04"/>
</g>
<!-- 14 -->
<g id="node27" class="node">
<title>14</title>
<ellipse fill="none" stroke="black" cx="943" cy="-215" rx="18" ry="18"/>
<text text-anchor="middle" x="943" y="-210.6" font-family="sans-serif" font-size="18.00">14</text>
</g>
<!-- 8&#45;&#45;14 -->
<g id="edge26" class="edge">
<title>8&#45;&#45;14</title>
<path fill="none" stroke="black" d="M913.49,-277.42C919.91,-264.06 929.11,-244.91 935.52,-231.56"/>
</g>
<!-- 18 -->
<g id="node28" class="node">
<title>18</title>
<ellipse fill="none" stroke="black" cx="980" cy="-215" rx="18" ry="18"/>
<text text-anchor="middle" x="980" y="-210.6" font-family="sans-serif" font-size="18.00">18</text>
</g>
<!-- 8&#45;&#45;18 -->
<g id="edge27" class="edge">
<title>8&#45;&#45;18</title>
<path fill="none" stroke="black" d="M918.22,-280.29C932.01,-265.93 954.31,-242.73 968.01,-228.48"/>
</g>
<!-- 19 -->
<g id="node29" class="node">
<title>19</title>
<ellipse fill="none" stroke="black" cx="1017" cy="-215" rx="18" ry="18"/>
<text text-anchor="middle" x="1017" y="-210.6" font-family="sans-serif" font-size="18.00">19</text>
</g>
<!-- 8&#45;&#45;19 -->
<g id="edge28" class="edge">
<title>8&#45;&#45;19</title>
<path fill="none" stroke="black" d="M919.83,-282.02C922.51,-279.98 925.32,-277.89 928,-276 956.92,-255.61 966.08,-253.39 995,-233 997.68,-231.11 1000.49,-229.02 1003.17,-226.98"/>
</g>
<!-- 41 -->
<g id="node30" class="node">
<title>41</title>
<ellipse fill="none" stroke="black" cx="1054" cy="-215" rx="18" ry="18"/>
<text text-anchor="middle" x="1054" y="-210.6" font-family="sans-serif" font-size="18.00">41</text>
</g>
<!-- 8&#45;&#45;41 -->
<g id="edge29" class="edge">
<title>8&#45;&#45;41</title>
<path fill="none" stroke="black" d="M919.57,-281.62C922.28,-279.62 925.16,-277.65 928,-276 971.28,-250.93 988.72,-258.07 1032,-233 1034.84,-231.35 1037.72,-229.38 1040.43,-227.38"/>
</g>
<!-- 42 -->
<g id="node31" class="node">
<title>42</title>
<ellipse fill="none" stroke="black" cx="1091" cy="-215" rx="18" ry="18"/>
<text text-anchor="middle" x="1091" y="-210.6" font-family="sans-serif" font-size="18.00">42</text>
</g>
<!-- 8&#45;&#45;42 -->
<g id="edge30" class="edge">
<title>8&#45;&#45;42</title>
<path fill="none" stroke="black" d="M919.45,-281.4C922.16,-279.41 925.08,-277.51 928,-276 986.2,-245.92 1010.8,-263.08 1069,-233 1071.92,-231.49 1074.84,-229.59 1077.55,-227.6"/>
</g>
<!-- 46 -->
<g id="node32" class="node">
<title>46</title>
<ellipse fill="none" stroke="black" cx="1128" cy="-215" rx="18" ry="18"/>
<text text-anchor="middle" x="1128" y="-210.6" font-family="sans-serif" font-size="18.00">46</text>
</g>
<!-- 8&#45;&#45;46 -->
<g id="edge31" class="edge">
<title>8&#45;&#45;46</title>
<path fill="none" stroke="black" d="M919.38,-281.26C922.1,-279.29 925.04,-277.42 928,-276 1001.37,-240.79 1032.63,-268.21 1106,-233 1108.96,-231.58 1111.9,-229.71 1114.62,-227.74"/>
</g>
<!-- 51 -->
<g id="node33" class="node">
<title>51</title>
<ellipse fill="none" stroke="black" cx="1165" cy="-215" rx="18" ry="18"/>
<text text-anchor="middle" x="1165" y="-210.6" font-family="sans-serif" font-size="18.00">51</text>
</g>
<!-- 8&#45;&#45;51 -->
<g id="edge32" class="edge">
<title>8&#45;&#45;51</title>
<path fill="none" stroke="black" d="M919.34,-281.16C922.06,-279.2 925.01,-277.36 928,-276 1016.67,-235.59 1054.33,-273.41 1143,-233 1145.99,-231.64 1148.94,-229.8 1151.66,-227.84"/>
</g>
<!-- 52 -->
<g id="node34" class="node">
<title>52</title>
<ellipse fill="none" stroke="black" cx="1202" cy="-215" rx="18" ry="18"/>
<text text-anchor="middle" x="1202" y="-210.6" font-family="sans-serif" font-size="18.00">52</text>
</g>
<!-- 8&#45;&#45;52 -->
<g id="edge33" class="edge">
<title>8&#45;&#45;52</title>
<path fill="none" stroke="black" d="M919.3,-281.09C922.03,-279.14 924.99,-277.32 928,-276 1032.05,-230.35 1075.95,-278.65 1180,-233 1183.01,-231.68 1185.97,-229.86 1188.7,-227.91"/>
</g>
<!-- 56 -->
<g id="node35" class="node">
<title>56</title>
<ellipse fill="none" stroke="black" cx="1239" cy="-215" rx="18" ry="18"/>
<text text-anchor="middle" x="1239" y="-210.6" font-family="sans-serif" font-size="18.00">56</text>
</g>
<!-- 8&#45;&#45;56 -->
<g id="edge34" class="edge">
<title>8&#45;&#45;56</title>
<path fill="none" stroke="black" d="M919.28,-281.04C922.01,-279.09 924.98,-277.29 928,-276 1047.47,-225.1 1097.53,-283.9 1217,-233 1220.02,-231.71 1222.99,-229.91 1225.72,-227.96"/>
</g>
<!-- 61 -->
<g id="node36" class="node">
<title>61</title>
<ellipse fill="none" stroke="black" cx="1276" cy="-215" rx="18" ry="18"/>
<text text-anchor="middle" x="1276" y="-210.6" font-family="sans-serif" font-size="18.00">61</text>
</g>
<!-- 8&#45;&#45;61 -->
<g id="edge35" class="edge">
<title>8&#45;&#45;61</title>
<path fill="none" stroke="black" d="M919.27,-281C922,-279.05 924.97,-277.26 928,-276 1062.92,-219.83 1119.08,-289.17 1254,-233 1257.03,-231.74 1260,-229.95 1262.73,-228"/>
</g>
<!-- 62 -->
<g id="node37" class="node">
<title>62</title>
<ellipse fill="none" stroke="black" cx="1313" cy="-215" rx="18" ry="18"/>
<text text-anchor="middle" x="1313" y="-210.6" font-family="sans-serif" font-size="18.00">62</text>
</g>
<!-- 8&#45;&#45;62 -->
<g id="edge36" class="edge">
<title>8&#45;&#45;62</title>
<path fill="none" stroke="black" d="M918.77,-281.32C921.64,-279.23 924.78,-277.31 928,-276 1078.39,-214.55 1140.61,-294.45 1291,-233 1294.22,-231.69 1297.36,-229.77 1300.23,-227.68"/>
</g>
<!-- 66 -->
<g id="node38" class="node">
<title>66</title>
<ellipse fill="none" stroke="black" cx="1350" cy="-215" rx="18" ry="18"/>
<text text-anchor="middle" x="1350" y="-210.6" font-family="sans-serif" font-size="18.00">66</text>
</g>
<!-- 8&#45;&#45;66 -->
<g id="edge37" class="edge">
<title>8&#45;&#45;66</title>
<path fill="none" stroke="black" d="M918.76,-281.29C921.62,-279.21 924.78,-277.3 928,-276 1093.88,-209.27 1162.12,-299.73 1328,-233 1331.22,-231.7 1334.38,-229.79 1337.24,-227.71"/>
</g>
<!-- 23 -->
<g id="node84" class="node">
<title>23</title>
<ellipse fill="none" stroke="black" cx="18" cy="-57" rx="18" ry="18"/>
<text text-anchor="middle" x="18" y="-52.6" font-family="sans-serif" font-size="18.00">23</text>
</g>
<!-- 11&#45;&#45;23 -->
<g id="edge84" class="edge">
<title>11&#45;&#45;23</title>
<path fill="none" stroke="black" d="M523.26,-123.25C520.39,-121.17 517.23,-119.27 514,-118 317.1,-40.68 236.9,-152.32 40,-75 36.77,-73.73 33.61,-71.83 30.74,-69.75"/>
</g>
<!-- 27 -->
<g id="node85" class="node">
<title>27</title>
<ellipse fill="none" stroke="black" cx="55" cy="-57" rx="18" ry="18"/>
<text text-anchor="middle" x="55" y="-52.6" font-family="sans-serif" font-size="18.00">27</text>
</g>
<!-- 11&#45;&#45;27 -->
<g id="edge85" class="edge">
<title>11&#45;&#45;27</title>
<path fill="none" stroke="black" d="M523.25,-123.27C520.38,-121.19 517.23,-119.28 514,-118 332.62,-45.98 258.38,-147.02 77,-75 73.77,-73.72 70.62,-71.81 67.75,-69.73"/>
</g>
<!-- 28 -->
<g id="node86" class="node">
<title>28</title>
<ellipse fill="none" stroke="black" cx="92" cy="-57" rx="18" ry="18"/>
<text text-anchor="middle" x="92" y="-52.6" font-family="sans-serif" font-size="18.00">28</text>
</g>
<!-- 11&#45;&#45;28 -->
<g id="edge86" class="edge">
<title>11&#45;&#45;28</title>
<path fill="none" stroke="black" d="M523.24,-123.29C520.38,-121.21 517.22,-119.3 514,-118 348.12,-51.27 279.88,-141.73 114,-75 110.78,-73.7 107.62,-71.79 104.76,-69.71"/>
</g>
<!-- 33 -->
<g id="node87" class="node">
<title>33</title>
<ellipse fill="none" stroke="black" cx="129" cy="-57" rx="18" ry="18"/>
<text text-anchor="middle" x="129" y="-52.6" font-family="sans-serif" font-size="18.00">33</text>
</g>
<!-- 11&#45;&#45;33 -->
<g id="edge87" class="edge">
<title>11&#45;&#45;33</title>
<path fill="none" stroke="black" d="M523.23,-123.32C520.36,-121.23 517.22,-119.31 514,-118 363.61,-56.55 301.39,-136.45 151,-75 147.78,-73.69 144.64,-71.77 141.77,-69.68"/>
</g>
<!-- 37 -->
<g id="node88" class="node">
<title>37</title>
<ellipse fill="none" stroke="black" cx="166" cy="-57" rx="18" ry="18"/>
<text text-anchor="middle" x="166" y="-52.6" font-family="sans-serif" font-size="18.00">37</text>
</g>
<!-- 11&#45;&#45;37 -->
<g id="edge88" class="edge">
<title>11&#45;&#45;37</title>
<path fill="none" stroke="black" d="M522.73,-123C520,-121.05 517.03,-119.26 514,-118 379.08,-61.83 322.92,-131.17 188,-75 184.97,-73.74 182,-71.95 179.27,-70"/>
</g>
<!-- 38 -->
<g id="node89" class="node">
<title>38</title>
<ellipse fill="none" stroke="black" cx="203" cy="-57" rx="18" ry="18"/>
<text text-anchor="middle" x="203" y="-52.6" font-family="sans-serif" font-size="18.00">38</text>
</g>
<!-- 11&#45;&#45;38 -->
<g id="edge89" class="edge">
<title>11&#45;&#45;38</title>
<path fill="none" stroke="black" d="M522.72,-123.04C519.99,-121.09 517.02,-119.29 514,-118 394.53,-67.1 344.47,-125.9 225,-75 221.98,-73.71 219.01,-71.91 216.28,-69.96"/>
</g>
<!-- 74 -->
<g id="node90" class="node">
<title>74</title>
<ellipse fill="none" stroke="black" cx="240" cy="-57" rx="18" ry="18"/>
<text text-anchor="middle" x="240" y="-52.6" font-family="sans-serif" font-size="18.00">74</text>
</g>
<!-- 11&#45;&#45;74 -->
<g id="edge90" class="edge">
<title>11&#45;&#45;74</title>
<path fill="none" stroke="black" d="M522.7,-123.09C519.97,-121.14 517.01,-119.32 514,-118 409.95,-72.35 366.05,-120.65 262,-75 258.99,-73.68 256.03,-71.86 253.3,-69.91"/>
</g>
<!-- 75 -->
<g id="node91" class="node">
<title>75</title>
<ellipse fill="none" stroke="black" cx="277" cy="-57" rx="18" ry="18"/>
<text text-anchor="middle" x="277" y="-52.6" font-family="sans-serif" font-size="18.00">75</text>
</g>
<!-- 11&#45;&#45;75 -->
<g id="edge91" class="edge">
<title>11&#45;&#45;75</title>
<path fill="none" stroke="black" d="M522.66,-123.16C519.94,-121.2 516.99,-119.36 514,-118 425.33,-77.59 387.67,-115.41 299,-75 296.01,-73.64 293.06,-71.8 290.34,-69.84"/>
</g>
<!-- 79 -->
<g id="node92" class="node">
<title>79</title>
<ellipse fill="none" stroke="black" cx="314" cy="-57" rx="18" ry="18"/>
<text text-anchor="middle" x="314" y="-52.6" font-family="sans-serif" font-size="18.00">79</text>
</g>
<!-- 11&#45;&#45;79 -->
<g id="edge92" class="edge">
<title>11&#45;&#45;79</title>
<path fill="none" stroke="black" d="M522.62,-123.26C519.9,-121.29 516.96,-119.42 514,-118 440.63,-82.79 409.37,-110.21 336,-75 333.04,-73.58 330.1,-71.71 327.38,-69.74"/>
</g>
<!-- 83 -->
<g id="node93" class="node">
<title>83</title>
<ellipse fill="none" stroke="black" cx="351" cy="-57" rx="18" ry="18"/>
<text text-anchor="middle" x="351" y="-52.6" font-family="sans-serif" font-size="18.00">83</text>
</g>
<!-- 11&#45;&#45;83 -->
<g id="edge93" class="edge">
<title>11&#45;&#45;83</title>
<path fill="none" stroke="black" d="M522.55,-123.4C519.84,-121.41 516.92,-119.51 514,-118 455.8,-87.92 431.2,-105.08 373,-75 370.08,-73.49 367.16,-71.59 364.45,-69.6"/>
</g>
<!-- 87 -->
<g id="node94" class="node">
<title>87</title>
<ellipse fill="none" stroke="black" cx="388" cy="-57" rx="18" ry="18"/>
<text text-anchor="middle" x="388" y="-52.6" font-family="sans-serif" font-size="18.00">87</text>
</g>
<!-- 11&#45;&#45;87 -->
<g id="edge94" class="edge">
<title>11&#45;&#45;87</title>
<path fill="none" stroke="black" d="M522.43,-123.62C519.72,-121.62 516.84,-119.65 514,-118 470.72,-92.93 453.28,-100.07 410,-75 407.16,-73.35 404.28,-71.38 401.57,-69.38"/>
</g>
<!-- 88 -->
<g id="node95" class="node">
<title>88</title>
<ellipse fill="none" stroke="black" cx="425" cy="-57" rx="18" ry="18"/>
<text text-anchor="middle" x="425" y="-52.6" font-family="sans-serif" font-size="18.00">88</text>
</g>
<!-- 11&#45;&#45;88 -->
<g id="edge95" class="edge">
<title>11&#45;&#45;88</title>
<path fill="none" stroke="black" d="M522.17,-124.02C519.49,-121.98 516.68,-119.89 514,-118 485.08,-97.61 475.92,-95.39 447,-75 444.32,-73.11 441.51,-71.02 438.83,-68.98"/>
</g>
<!-- 93 -->
<g id="node96" class="node">
<title>93</title>
<ellipse fill="none" stroke="black" cx="462" cy="-57" rx="18" ry="18"/>
<text text-anchor="middle" x="462" y="-52.6" font-family="sans-serif" font-size="18.00">93</text>
</g>
<!-- 11&#45;&#45;93 -->
<g id="edge96" class="edge">
<title>11&#45;&#45;93</title>
<path fill="none" stroke="black" d="M523.78,-122.29C509.99,-107.93 487.69,-84.73 473.99,-70.48"/>
</g>
<!-- 97 -->
<g id="node97" class="node">
<title>97</title>
<ellipse fill="none" stroke="black" cx="499" cy="-57" rx="18" ry="18"/>
<text text-anchor="middle" x="499" y="-52.6" font-family="sans-serif" font-size="18.00">97</text>
</g>
<!-- 11&#45;&#45;97 -->
<g id="edge97" class="edge">
<title>11&#45;&#45;97</title>
<path fill="none" stroke="black" d="M528.51,-119.42C522.09,-106.06 512.89,-86.91 506.48,-73.56"/>
</g>
<!-- 98 -->
<g id="node98" class="node">
<title>98</title>
<ellipse fill="none" stroke="black" cx="536" cy="-57" rx="18" ry="18"/>
<text text-anchor="middle" x="536" y="-52.6" font-family="sans-serif" font-size="18.00">98</text>
</g>
<!-- 11&#45;&#45;98 -->
<g id="edge98" class="edge">
<title>11&#45;&#45;98</title>
<path fill="none" stroke="black" d="M536,-117.91C536,-105.15 536,-87.79 536,-75.04"/>
</g>
<!-- 73 -->
<g id="node99" class="node">
<title>73</title>
<ellipse fill="none" stroke="black" cx="573" cy="-57" rx="18" ry="18"/>
<text text-anchor="middle" x="573" y="-52.6" font-family="sans-serif" font-size="18.00">73</text>
</g>
<!-- 12&#45;&#45;73 -->
<g id="edge99" class="edge">
<title>12&#45;&#45;73</title>
<path fill="none" stroke="black" d="M573,-117.91C573,-105.15 573,-87.79 573,-75.04"/>
</g>
<!-- 77 -->
<g id="node100" class="node">
<title>77</title>
<ellipse fill="none" stroke="black" cx="610" cy="-57" rx="18" ry="18"/>
<text text-anchor="middle" x="610" y="-52.6" font-family="sans-serif" font-size="18.00">77</text>
</g>
<!-- 12&#45;&#45;77 -->
<g id="edge100" class="edge">
<title>12&#45;&#45;77</title>
<path fill="none" stroke="black" d="M580.49,-119.42C586.91,-106.06 596.11,-86.91 602.52,-73.56"/>
</g>
<!-- 78 -->
<g id="node101" class="node">
<title>78</title>
<ellipse fill="none" stroke="black" cx="647" cy="-57" rx="18" ry="18"/>
<text text-anchor="middle" x="647" y="-52.6" font-family="sans-serif" font-size="18.00">78</text>
</g>
<!-- 12&#45;&#45;78 -->
<g id="edge101" class="edge">
<title>12&#45;&#45;78</title>
<path fill="none" stroke="black" d="M585.22,-122.29C599.01,-107.93 621.31,-84.73 635.01,-70.48"/>
</g>
</g>
</svg>
